<?xml version="1.0" encoding="utf-8"?>
<!-- Generator: Adobe Illustrator 25.2.0, SVG Export Plug-In . SVG Version: 6.00 Build 0)  -->
<svg version="1.1" xmlns="http://www.w3.org/2000/svg" xmlns:xlink="http://www.w3.org/1999/xlink" x="0px" y="0px"
	 viewBox="0 0 10976.5 4785.4" style="enable-background:new 0 0 10976.5 4785.4;" xml:space="preserve">
<style type="text/css">
	.st0{fill:#00945E;}
	.st1{fill:#006098;}
</style>
<g id="art">
	<g>
		<g>
			<path class="st0" d="M2906.7,3526.1h-418l-210.5,389.6h-116.5l570.3-1045H2856l273.2,1045h-122.4L2906.7,3526.1z M2532,3441
				h352.3l-113.5-444.9L2532,3441z"/>
			<path class="st0" d="M3646.8,2870.7c191.1,0,310.5,92.6,303.1,273.2c-7.5,155.3-122.4,247.8-212,300.1l225.4,471.7h-131.4
				l-201.5-429.9h-235.9l-59.7,429.9h-116.5l146.3-1045H3646.8z M3406.4,3397.7h258.3c68.7-37.3,159.7-119.4,165.7-237.4
				c6-128.4-70.2-198.5-210.5-198.5c-73.2,0-122.4,4.5-152.3,10.5L3406.4,3397.7z"/>
			<path class="st0" d="M4765.7,2961.8h-316.5l-140.3,953.9h-115l140.3-953.9h-324l10.5-91.1h758.4L4765.7,2961.8z"/>
		</g>
	</g>
</g>
<g id="experta">
	<g>
		<g>
			<g>
				<path class="st1" d="M1816.6,2288.2l-42.1,323.7h-1093l244.4-1742h1000.4l-42.3,323.4h-572.5l-54.5,375.5H1819l-44.6,324.1
					h-562.7l-56.9,395.4H1816.6z"/>
			</g>
			<g>
				<path class="st1" d="M4378.5,869.8c199.3,0,352.7,48.6,460.7,145.3c107.8,97.4,156.5,234.6,146.5,411.9
					c-4.9,98.1-28.5,183.2-70.6,255.4c-42.7,72.2-96.5,132.4-162,180.4c-65.4,47.9-140.5,83.5-225.3,107.1
					c-84.6,22.8-172.2,34.6-263.5,34.6c-23.4,0-51.1-0.9-83.2-2.3c-32.6-1.6-60.2-3.6-83.8-5.2l-87.1,614.9h-427.7l240.9-1742
					H4378.5z M4139.9,1673.5c23,3.3,47.8,5.6,73.4,6.4c25.8,0.7,47.4,1.4,65.9,1.4c74.6,0,137.2-20.4,187.8-60.5
					c50.7-40,79.3-102.5,85.9-187.4c4.9-68.5-12.2-125.5-49.8-171.7c-38.4-45.6-97.2-68.6-176.9-68.6c-26.6,0-49.6,1.6-69.4,5.1
					c-19.9,3.1-36.8,6.7-50,10L4139.9,1673.5z"/>
			</g>
			<g>
				<path class="st1" d="M6094.8,2288.2l-42.1,323.7H4960.3l243.8-1742h1000.4l-42.4,323.4h-572.1l-54.7,375.5h562.1l-44.6,324.1
					h-562.5l-56.8,395.4H6094.8z"/>
			</g>
			<g>
				<path class="st1" d="M7000.8,869.8c84.7,0,161.9,9,231.3,27.3c69.6,18.2,129,46.8,178.2,85.8c48.7,39.2,85.7,89.6,110.5,151.8
					c24.6,62.2,36.2,136.7,34.9,222.4c-1.5,61.8-14.6,118.1-37.3,169.4c-23.2,51.5-50.9,98.1-83.2,139.4
					c-32.6,41.8-67.2,77.5-103.2,108.7c-36.8,30.2-69.2,54.8-97.3,73.1l348.4,764.2h-482.8l-243.8-597.3h-209.1l-82.2,597.3h-428.2
					l243.8-1742H7000.8z M6692.2,1703.4h278.8c23.1-18.1,50.4-51.3,80.9-99.4c30.5-48.5,50-104,58.4-166.8
					c8.3-80.1-6.7-140.2-44.8-181.8c-38.7-41.2-92.2-62.2-161.9-62.2c-32.9,0-61.2,1.6-83.1,5.1c-22.4,3.1-41.3,7.3-56.2,12.5
					L6692.2,1703.4z"/>
			</g>
			<g>
				<path class="st1" d="M8995,1193.2h-460.5l-198.8,1418.7h-427.9l198.7-1418.7h-467.6l44.8-323.4h1356.1L8995,1193.2z"/>
			</g>
			<g>
				<path class="st1" d="M9742.6,2163.7h-577.1l-229.5,448.2h-415.4l923.3-1742h435.7l415.4,1742h-452.9L9742.6,2163.7z
					 M9312.3,1860.2h358.4L9562.7,1355L9312.3,1860.2z"/>
			</g>
		</g>
		<g>
			<g>
				<g>
					<polygon class="st0" points="2558.5,869.6 2073,869.6 2501.3,1659 2760.2,1248.1 					"/>
				</g>
				<g>
					<polygon class="st0" points="3017.8,2611.9 3488.1,2611.9 3042.8,1777.9 2783.4,2179.5 					"/>
				</g>
				<g>
					<polygon class="st0" points="3081.1,869.6 2798.4,1318.6 2539.8,1729.2 1699.7,3060.7 1699.7,3730.1 2745.5,2109.5 
						3005.4,1707.3 3545.9,869.6 					"/>
				</g>
			</g>
			<g>
				<path class="st0" d="M2645.8,2861.9"/>
			</g>
		</g>
	</g>
</g>
</svg>
