<?xml version="1.0" encoding="utf-8"?>
<!-- Generator: Adobe Illustrator 14.0.0, SVG Export Plug-In . SVG Version: 6.00 Build 43363)  -->
<!DOCTYPE svg PUBLIC "-//W3C//DTD SVG 1.1//EN" "http://www.w3.org/Graphics/SVG/1.1/DTD/svg11.dtd">
<svg version="1.1" id="Layer_1" xmlns="http://www.w3.org/2000/svg" xmlns:xlink="http://www.w3.org/1999/xlink" x="0px" y="0px"
	 width="202px" height="62.364px" viewBox="0 0 202 62.364" enable-background="new 0 0 202 62.364" xml:space="preserve">
<g>
	<g>
		<path fill="#0061A1" d="M33.598,0.03C15.786-0.725,0.756,12.611,0.028,29.815c-0.729,17.206,13.12,31.764,30.928,32.518
			c17.811,0.758,32.841-12.58,33.569-29.788C65.252,15.342,51.407,0.781,33.598,0.03z M57.344,30.524
			C56.717,45.36,44.179,56.879,29.341,56.25C14.504,55.623,2.98,43.085,3.611,28.248C4.239,13.409,16.778,1.89,31.615,2.52
			C46.454,3.146,57.971,15.685,57.344,30.524z"/>
	</g>
	<path fill="#0061A1" d="M33.705,31.368"/>
	<path fill="#0061A1" d="M19.821,30.328"/>
	<path fill="#0061A1" d="M33.709,31.38"/>
	<path fill="#0061A1" d="M19.827,30.342"/>
	<path fill="#0061A1" d="M49.335,13.94c-0.091-0.18-0.268-0.538-0.268-0.538c-2.876-4.06-8.234-6.794-14.472-6.794
		c-8.522,0-15.553,5.11-16.587,11.717c0,0,0.761,1.844-0.738,3.133c0,0-2.376,1.348-5.234,1.223v1.699h11.97
		c0,0-0.418-0.933-0.37-2.738c0.165-5.992,6.695-10.882,14.953-10.855C46.271,10.813,49.335,13.94,49.335,13.94z"/>
	<path fill="#0061A1" d="M53.236,22.526c0.009-0.12,0.01-0.235,0.01-0.354c0-5.585-6.312-10.112-14.097-10.112
		c-7.79,0-14.103,4.527-14.103,10.112c0,0.772,0.065,1.544,0.351,2.247h29.297V22.55h-1.277L53.236,22.526z"/>
	<path fill="#0061A1" d="M52.318,25.721H16.707v1.27l-4.142,8.878v1.367h3.608l0.011,8.422c-0.245,3.069,3.602,3.548,5.264,3.235
		c2.094-0.392,2.331,2.095,2.331,2.095l-0.51,8.124l22.155-2.77V41.584l0.002-0.46c-0.105-1.249,1.438-1.241,1.438-1.241
		c1.564-0.286,2.319-1.24,4.019-4.07c1.569-2.615,1.408-6.502,1.477-6.852C52.493,28.308,52.318,25.721,52.318,25.721z
		 M19.827,31.296c-0.848,0-1.534-0.428-1.534-0.956c0-0.527,0.686-0.955,1.534-0.955c0.843,0,1.53,0.428,1.53,0.955
		C21.357,30.868,20.67,31.296,19.827,31.296z"/>
	<g>
		<path fill="#0061A1" d="M88.568,7.717h8.836v22.748c0,1.903-0.303,3.445-0.912,4.627c-0.595,1.234-1.582,2.354-2.965,3.354
			c-1.866,1.333-4.133,1.999-6.803,1.999c-3.025,0-5.56-0.736-7.609-2.208c-2.599-1.877-3.899-4.875-3.899-8.999V7.717h8.836v20.979
			c0,1.418,0.175,2.423,0.52,3.011c0.348,0.591,0.929,0.884,1.748,0.884c0.851,0,1.437-0.273,1.761-0.82
			c0.323-0.574,0.488-1.591,0.488-3.054V7.717z"/>
		<path fill="#0061A1" d="M126.029,24.195c0,4.816-1.139,8.732-3.412,11.746c-2.262,3.003-5.206,4.504-8.838,4.504
			c-3.223,0-5.984-1.153-8.286-3.46c-2.898-2.919-4.345-7.298-4.345-13.141c0-5.594,1.513-9.871,4.536-12.832
			c2.246-2.195,4.907-3.295,7.988-3.295c3.773,0,6.776,1.489,9.008,4.464C124.913,15.155,126.029,19.161,126.029,24.195z
			 M116.852,24.27c0-5.8-1.05-8.697-3.135-8.697c-1.048,0-1.883,0.76-2.503,2.28c-0.606,1.413-0.91,3.491-0.91,6.228
			c0,2.7,0.285,4.792,0.859,6.281c0.572,1.488,1.364,2.23,2.384,2.23c1.044,0,1.85-0.73,2.417-2.201
			C116.554,28.925,116.852,26.884,116.852,24.27z"/>
		<path fill="#0061A1" d="M148.208,30.472l-0.508,8.881c-1.966,0.728-3.725,1.092-5.278,1.092c-3.658,0-6.736-1.296-9.24-3.89
			c-2.797-2.906-4.196-7.02-4.196-12.341c0-4.98,1.314-8.979,3.94-11.993c2.63-3.003,6.142-4.504,10.535-4.504
			c1.426,0,2.882,0.259,4.368,0.774v9.05c-1.316-1.313-2.667-1.969-4.053-1.969c-1.808,0-3.218,0.762-4.236,2.286
			c-1.02,1.539-1.524,3.665-1.524,6.38c0,1.317,0.127,2.488,0.38,3.527c0.253,1.035,0.619,1.908,1.091,2.622
			c0.474,0.714,1.056,1.259,1.749,1.636c0.693,0.378,1.483,0.566,2.372,0.566C145.137,32.591,146.668,31.886,148.208,30.472z"/>
		<path fill="#0061A1" d="M174.961,40.445h-9.559l-4.364-11.654c-0.043-0.2-0.116-0.46-0.222-0.783
			c-0.108-0.327-0.237-0.717-0.393-1.168l0.061,2.163v11.442h-8.791V7.717h9.048c3.982,0,6.967,0.785,8.943,2.35
			c2.516,2.009,3.773,4.867,3.773,8.566c0,3.958-1.69,6.691-5.066,8.204L174.961,40.445z M160.532,22.381h0.593
			c1.017,0,1.865-0.388,2.543-1.164c0.677-0.778,1.016-1.768,1.016-2.968c0-2.443-1.277-3.667-3.836-3.667h-0.315V22.381z"/>
		<path fill="#0061A1" d="M201.428,40.445h-9.131l-0.656-4.138h-5.956l-0.721,4.138h-9.134l7.863-32.728H194.5L201.428,40.445z
			 M190.599,29.442l-0.57-3.815c-0.015-0.014-0.043-0.204-0.084-0.57c-0.029-0.313-0.179-1.542-0.446-3.688
			c-0.027-0.24-0.063-0.568-0.104-0.988c-0.044-0.416-0.102-0.941-0.172-1.577l-0.274-3.094c-0.028,0.297-0.068,0.627-0.114,0.996
			c-0.052,0.367-0.104,0.77-0.162,1.207c-0.098,0.877-0.166,1.485-0.211,1.824c-0.042,0.339-0.07,0.542-0.085,0.615l-0.615,3.962
			l-0.89,5.129H190.599z"/>
	</g>
	<g>
		<path fill="#0061A1" d="M75.6,43.741h1.081v3.716c0,0.322,0.028,0.549,0.086,0.679c0.057,0.134,0.151,0.24,0.281,0.32
			c0.131,0.079,0.291,0.118,0.477,0.118c0.197,0,0.365-0.046,0.509-0.132c0.142-0.089,0.237-0.201,0.292-0.339
			c0.054-0.135,0.085-0.397,0.085-0.782v-3.58h1.079v3.428c0,0.577-0.032,0.979-0.1,1.201c-0.063,0.225-0.188,0.441-0.371,0.648
			c-0.186,0.209-0.398,0.361-0.637,0.463c-0.239,0.103-0.518,0.148-0.833,0.148c-0.418,0-0.781-0.091-1.089-0.284
			c-0.31-0.19-0.531-0.429-0.663-0.719c-0.134-0.286-0.199-0.774-0.199-1.458V43.741z"/>
		<path fill="#0061A1" d="M80.646,45.234h1.069v0.438c0.241-0.202,0.46-0.344,0.656-0.425c0.198-0.08,0.399-0.118,0.604-0.118
			c0.421,0,0.781,0.146,1.073,0.443c0.247,0.248,0.372,0.62,0.372,1.11v2.81h-1.07V47.63c0-0.509-0.022-0.847-0.07-1.015
			c-0.045-0.164-0.125-0.291-0.236-0.379c-0.112-0.09-0.25-0.131-0.415-0.131c-0.213,0-0.396,0.072-0.55,0.215
			c-0.156,0.145-0.26,0.346-0.317,0.601c-0.034,0.132-0.048,0.421-0.048,0.862v1.709h-1.069V45.234z"/>
		<path fill="#0061A1" d="M85.868,43.494c0.181,0,0.341,0.071,0.469,0.202c0.132,0.137,0.196,0.3,0.196,0.491
			c0,0.188-0.063,0.351-0.192,0.483c-0.13,0.133-0.284,0.2-0.466,0.2c-0.187,0-0.341-0.067-0.474-0.202
			c-0.131-0.137-0.197-0.305-0.197-0.496c0-0.188,0.065-0.346,0.195-0.479C85.53,43.563,85.684,43.494,85.868,43.494z
			 M85.335,45.234h1.07v4.259h-1.07V45.234z"/>
		<path fill="#0061A1" d="M89.368,45.129c0.403,0,0.781,0.102,1.135,0.3c0.354,0.202,0.631,0.473,0.828,0.815
			c0.2,0.346,0.297,0.718,0.297,1.115c0,0.401-0.097,0.773-0.3,1.123c-0.198,0.35-0.47,0.622-0.815,0.819
			c-0.347,0.194-0.723,0.294-1.141,0.294c-0.61,0-1.13-0.218-1.563-0.648c-0.433-0.434-0.648-0.959-0.648-1.582
			c0-0.662,0.244-1.217,0.733-1.66C88.32,45.323,88.813,45.129,89.368,45.129z M89.38,46.129c-0.333,0-0.61,0.114-0.83,0.348
			c-0.221,0.229-0.332,0.525-0.332,0.885c0,0.374,0.109,0.672,0.328,0.9c0.219,0.23,0.494,0.346,0.832,0.346
			c0.333,0,0.612-0.116,0.835-0.35c0.224-0.23,0.333-0.527,0.333-0.896c0-0.365-0.107-0.662-0.326-0.888
			C90,46.244,89.718,46.129,89.38,46.129z M89.538,42.93h1.256l-1.424,1.529h-0.761L89.538,42.93z"/>
		<path fill="#0061A1" d="M92.5,45.234h1.071v0.438c0.24-0.202,0.459-0.344,0.657-0.425c0.197-0.08,0.398-0.118,0.602-0.118
			c0.42,0,0.78,0.146,1.073,0.443c0.248,0.248,0.371,0.62,0.371,1.11v2.81h-1.07V47.63c0-0.509-0.021-0.847-0.067-1.015
			c-0.045-0.164-0.125-0.291-0.236-0.379c-0.113-0.09-0.25-0.131-0.416-0.131c-0.212,0-0.398,0.072-0.55,0.215
			c-0.153,0.145-0.262,0.346-0.319,0.601c-0.031,0.132-0.045,0.421-0.045,0.862v1.709H92.5V45.234z"/>
		<path fill="#0061A1" d="M102.375,43.602c0.812,0,1.507,0.293,2.094,0.881c0.583,0.589,0.876,1.305,0.876,2.152
			c0,0.836-0.286,1.547-0.863,2.127c-0.577,0.581-1.275,0.867-2.098,0.867c-0.858,0-1.577-0.295-2.146-0.891
			c-0.569-0.597-0.854-1.305-0.854-2.125c0-0.549,0.133-1.053,0.397-1.514c0.264-0.46,0.631-0.824,1.095-1.094
			C101.34,43.737,101.84,43.602,102.375,43.602z M102.36,44.66c-0.53,0-0.979,0.185-1.341,0.556
			c-0.361,0.371-0.542,0.842-0.542,1.414c0,0.635,0.229,1.139,0.685,1.508c0.353,0.293,0.759,0.437,1.219,0.437
			c0.519,0,0.96-0.188,1.323-0.563s0.546-0.839,0.546-1.391c0-0.547-0.184-1.012-0.55-1.392
			C103.333,44.85,102.887,44.66,102.36,44.66z"/>
		<path fill="#0061A1" d="M107.344,43.602v2.101c0.195-0.19,0.404-0.336,0.629-0.431c0.223-0.094,0.463-0.143,0.719-0.143
			c0.559,0,1.031,0.21,1.418,0.629c0.39,0.42,0.586,0.958,0.586,1.611c0,0.635-0.202,1.162-0.604,1.59
			c-0.402,0.425-0.881,0.637-1.432,0.637c-0.244,0-0.473-0.043-0.684-0.13c-0.213-0.088-0.423-0.229-0.633-0.425v0.451h-1.07v-5.891
			H107.344z M108.461,46.106c-0.335,0-0.613,0.115-0.832,0.346c-0.224,0.229-0.33,0.529-0.33,0.899c0,0.38,0.106,0.685,0.33,0.918
			c0.219,0.235,0.497,0.353,0.832,0.353c0.323,0,0.6-0.12,0.818-0.359c0.225-0.234,0.334-0.539,0.334-0.906s-0.107-0.667-0.326-0.9
			C109.071,46.223,108.792,46.106,108.461,46.106z"/>
		<path fill="#0061A1" d="M111.316,45.234h0.94v0.537c0.098-0.21,0.222-0.369,0.385-0.479c0.159-0.107,0.333-0.162,0.522-0.162
			c0.136,0,0.272,0.036,0.421,0.107l-0.325,0.916c-0.122-0.063-0.222-0.096-0.301-0.096c-0.16,0-0.297,0.102-0.41,0.306
			c-0.111,0.204-0.164,0.604-0.164,1.198l0.002,0.207v1.725h-1.07V45.234z"/>
		<path fill="#0061A1" d="M118.378,47.668h-3.433c0.051,0.305,0.182,0.544,0.397,0.719c0.215,0.18,0.487,0.269,0.82,0.269
			c0.397,0,0.74-0.138,1.027-0.418l0.897,0.425c-0.227,0.316-0.491,0.553-0.804,0.703c-0.313,0.155-0.684,0.23-1.114,0.23
			c-0.666,0-1.21-0.21-1.628-0.631c-0.417-0.42-0.628-0.946-0.628-1.578c0-0.648,0.211-1.186,0.626-1.614
			c0.418-0.43,0.946-0.644,1.576-0.644c0.669,0,1.214,0.214,1.635,0.642c0.419,0.429,0.63,0.992,0.63,1.695L118.378,47.668z
			 M117.312,46.833c-0.072-0.236-0.209-0.428-0.418-0.576c-0.207-0.146-0.449-0.222-0.724-0.222c-0.298,0-0.56,0.085-0.783,0.249
			c-0.144,0.103-0.271,0.286-0.392,0.549H117.312z"/>
		<path fill="#0061A1" d="M119.004,45.234h0.942v0.537c0.096-0.21,0.227-0.369,0.383-0.479c0.157-0.107,0.335-0.162,0.522-0.162
			c0.134,0,0.276,0.036,0.424,0.107l-0.326,0.916c-0.123-0.063-0.224-0.096-0.302-0.096c-0.161,0-0.3,0.102-0.409,0.306
			c-0.11,0.204-0.166,0.604-0.166,1.198l0.001,0.207v1.725h-1.069V45.234z"/>
		<path fill="#0061A1" d="M124.953,45.234h1.072v4.259h-1.072v-0.451c-0.211,0.195-0.42,0.337-0.632,0.425
			c-0.207,0.087-0.438,0.13-0.684,0.13c-0.55,0-1.028-0.212-1.429-0.637c-0.408-0.428-0.605-0.955-0.605-1.59
			c0-0.653,0.194-1.191,0.585-1.611c0.39-0.419,0.862-0.629,1.419-0.629c0.256,0,0.497,0.049,0.724,0.143
			c0.225,0.095,0.432,0.238,0.622,0.427V45.234z M123.821,46.106c-0.332,0-0.609,0.117-0.829,0.35
			c-0.222,0.233-0.332,0.533-0.332,0.9s0.113,0.672,0.336,0.906c0.226,0.239,0.501,0.359,0.828,0.359
			c0.341,0,0.62-0.117,0.844-0.353c0.22-0.233,0.333-0.538,0.333-0.918c0-0.37-0.113-0.67-0.333-0.899
			C124.444,46.221,124.162,46.106,123.821,46.106z"/>
		<path fill="#0061A1" d="M132.481,43.602h1.071v5.891h-1.071v-0.451c-0.208,0.195-0.419,0.337-0.63,0.425
			c-0.21,0.087-0.438,0.13-0.684,0.13c-0.551,0-1.028-0.212-1.43-0.637c-0.403-0.428-0.605-0.955-0.605-1.59
			c0-0.653,0.195-1.191,0.585-1.611c0.39-0.419,0.863-0.629,1.419-0.629c0.258,0,0.497,0.049,0.721,0.143
			c0.226,0.095,0.437,0.24,0.624,0.431V43.602z M131.351,46.106c-0.331,0-0.61,0.117-0.832,0.35c-0.219,0.233-0.328,0.533-0.328,0.9
			s0.111,0.672,0.334,0.906c0.224,0.239,0.503,0.359,0.828,0.359c0.341,0,0.619-0.117,0.843-0.353
			c0.224-0.233,0.33-0.538,0.33-0.918c0-0.37-0.106-0.67-0.33-0.899C131.972,46.221,131.692,46.106,131.351,46.106z"/>
		<path fill="#0061A1" d="M138.884,47.668h-3.43c0.049,0.305,0.18,0.544,0.395,0.719c0.214,0.18,0.49,0.269,0.821,0.269
			c0.398,0,0.74-0.138,1.028-0.418l0.895,0.425c-0.222,0.316-0.491,0.553-0.804,0.703c-0.313,0.155-0.684,0.23-1.112,0.23
			c-0.665,0-1.208-0.21-1.626-0.631c-0.421-0.42-0.63-0.946-0.63-1.578c0-0.648,0.209-1.186,0.63-1.614
			c0.416-0.43,0.938-0.644,1.571-0.644c0.668,0,1.215,0.214,1.636,0.642c0.419,0.429,0.63,0.992,0.63,1.695L138.884,47.668z
			 M137.817,46.833c-0.07-0.236-0.209-0.428-0.418-0.576c-0.207-0.146-0.448-0.222-0.722-0.222c-0.297,0-0.56,0.085-0.784,0.249
			c-0.141,0.103-0.273,0.286-0.393,0.549H137.817z"/>
		<path fill="#0061A1" d="M141.881,43.602h1.07v5.891h-1.07V43.602z"/>
		<path fill="#0061A1" d="M147.061,45.234h1.069v4.259h-1.069v-0.451c-0.209,0.195-0.421,0.337-0.632,0.425
			c-0.21,0.087-0.439,0.13-0.684,0.13c-0.553,0-1.031-0.212-1.433-0.637c-0.4-0.428-0.603-0.955-0.603-1.59
			c0-0.653,0.194-1.191,0.585-1.611c0.387-0.419,0.86-0.629,1.419-0.629c0.253,0,0.497,0.049,0.722,0.143
			c0.224,0.095,0.436,0.238,0.625,0.427V45.234z M145.927,46.106c-0.333,0-0.61,0.117-0.83,0.35c-0.219,0.233-0.327,0.533-0.327,0.9
			s0.108,0.672,0.334,0.906c0.225,0.239,0.498,0.359,0.827,0.359c0.338,0,0.618-0.117,0.84-0.353
			c0.225-0.233,0.337-0.538,0.337-0.918c0-0.37-0.112-0.67-0.337-0.899C146.549,46.221,146.267,46.106,145.927,46.106z"/>
		<path fill="#0061A1" d="M156.845,44.754l-0.763,0.727c-0.521-0.547-1.104-0.821-1.754-0.821c-0.55,0-1.011,0.188-1.389,0.562
			c-0.371,0.373-0.563,0.836-0.563,1.383c0,0.383,0.085,0.724,0.25,1.018c0.169,0.298,0.401,0.529,0.705,0.699
			c0.305,0.168,0.643,0.253,1.016,0.253c0.315,0,0.604-0.058,0.868-0.176c0.264-0.118,0.552-0.334,0.866-0.646l0.741,0.773
			c-0.424,0.416-0.824,0.703-1.205,0.865c-0.375,0.162-0.807,0.238-1.29,0.238c-0.891,0-1.621-0.28-2.19-0.848
			c-0.569-0.565-0.854-1.291-0.854-2.176c0-0.571,0.131-1.079,0.39-1.523c0.259-0.446,0.631-0.805,1.115-1.074
			c0.48-0.271,0.998-0.406,1.557-0.406c0.473,0,0.929,0.098,1.365,0.299C156.151,44.1,156.529,44.385,156.845,44.754z"/>
		<path fill="#0061A1" d="M159.692,45.129c0.404,0,0.78,0.102,1.135,0.3c0.352,0.202,0.631,0.473,0.829,0.815
			c0.197,0.346,0.293,0.718,0.293,1.115c0,0.401-0.098,0.773-0.297,1.123s-0.472,0.622-0.815,0.819
			c-0.347,0.194-0.725,0.294-1.141,0.294c-0.61,0-1.13-0.218-1.565-0.648c-0.43-0.434-0.646-0.959-0.646-1.582
			c0-0.662,0.243-1.217,0.734-1.66C158.647,45.323,159.134,45.129,159.692,45.129z M159.704,46.129
			c-0.333,0-0.608,0.114-0.828,0.348c-0.221,0.229-0.332,0.525-0.332,0.885c0,0.374,0.108,0.672,0.328,0.9
			c0.217,0.23,0.491,0.346,0.829,0.346c0.335,0,0.612-0.116,0.834-0.35c0.227-0.23,0.336-0.527,0.336-0.896
			c0-0.365-0.109-0.662-0.328-0.888C160.325,46.244,160.043,46.129,159.704,46.129z"/>
		<path fill="#0061A1" d="M162.822,45.234h1.072v0.438c0.241-0.202,0.458-0.344,0.658-0.425c0.193-0.08,0.396-0.118,0.603-0.118
			c0.419,0,0.779,0.146,1.07,0.443c0.247,0.248,0.375,0.62,0.375,1.11v2.81h-1.071V47.63c0-0.509-0.025-0.847-0.068-1.015
			c-0.046-0.164-0.126-0.291-0.234-0.379c-0.113-0.09-0.252-0.131-0.418-0.131c-0.212,0-0.396,0.072-0.551,0.215
			c-0.152,0.145-0.259,0.346-0.316,0.601c-0.033,0.132-0.047,0.421-0.047,0.862v1.709h-1.072V45.234z"/>
		<path fill="#0061A1" d="M170.228,45.838l-0.658,0.666c-0.27-0.268-0.515-0.398-0.733-0.398c-0.121,0-0.214,0.024-0.28,0.074
			c-0.068,0.053-0.103,0.116-0.103,0.189c0,0.059,0.02,0.109,0.066,0.157c0.041,0.048,0.147,0.114,0.318,0.197l0.393,0.192
			c0.413,0.206,0.694,0.413,0.85,0.623c0.152,0.209,0.232,0.455,0.232,0.735c0,0.378-0.141,0.692-0.418,0.943
			c-0.278,0.253-0.652,0.378-1.119,0.378c-0.621,0-1.115-0.242-1.485-0.729l0.658-0.719c0.126,0.148,0.274,0.268,0.441,0.359
			c0.169,0.089,0.319,0.137,0.449,0.137c0.143,0,0.256-0.035,0.342-0.102c0.088-0.07,0.131-0.146,0.131-0.234
			c0-0.165-0.158-0.324-0.469-0.482l-0.363-0.178c-0.69-0.345-1.038-0.779-1.038-1.301c0-0.336,0.131-0.623,0.391-0.861
			c0.26-0.239,0.591-0.357,0.996-0.357c0.275,0,0.534,0.061,0.779,0.184C169.852,45.433,170.059,45.61,170.228,45.838z"/>
		<path fill="#0061A1" d="M171.284,43.67h1.069v1.563h0.635v0.907h-0.635v3.352h-1.069v-3.352h-0.552v-0.907h0.552V43.67z"/>
		<path fill="#0061A1" d="M173.312,45.234h0.937v0.537c0.098-0.21,0.224-0.369,0.383-0.479c0.161-0.107,0.335-0.162,0.526-0.162
			c0.132,0,0.275,0.036,0.419,0.107l-0.323,0.916c-0.125-0.063-0.224-0.096-0.303-0.096c-0.161,0-0.297,0.102-0.408,0.306
			c-0.112,0.204-0.166,0.604-0.166,1.198l0.002,0.207v1.725h-1.066V45.234z"/>
		<path fill="#0061A1" d="M176.117,45.234h1.072v2.053c0,0.399,0.026,0.675,0.082,0.831c0.057,0.153,0.144,0.277,0.27,0.36
			c0.121,0.087,0.274,0.13,0.451,0.13c0.18,0,0.335-0.041,0.459-0.128c0.126-0.082,0.219-0.209,0.279-0.372
			c0.046-0.121,0.07-0.385,0.07-0.787v-2.087h1.067v1.802c0,0.744-0.059,1.252-0.175,1.525c-0.146,0.334-0.357,0.59-0.638,0.77
			c-0.279,0.178-0.635,0.266-1.065,0.266c-0.47,0-0.849-0.104-1.136-0.312c-0.289-0.209-0.491-0.501-0.612-0.872
			c-0.083-0.258-0.125-0.727-0.125-1.408V45.234z"/>
		<path fill="#0061A1" d="M185.087,46.098l-0.888,0.487c-0.17-0.174-0.332-0.298-0.496-0.365c-0.161-0.068-0.354-0.104-0.571-0.104
			c-0.399,0-0.722,0.12-0.969,0.36c-0.246,0.236-0.371,0.539-0.371,0.914c0,0.362,0.121,0.656,0.358,0.884
			c0.237,0.231,0.547,0.347,0.936,0.347c0.476,0,0.847-0.166,1.113-0.494l0.842,0.576c-0.458,0.598-1.103,0.893-1.933,0.893
			c-0.749,0-1.336-0.221-1.758-0.664c-0.426-0.443-0.638-0.957-0.638-1.555c0-0.409,0.102-0.789,0.313-1.134
			c0.202-0.347,0.49-0.62,0.859-0.817c0.366-0.198,0.779-0.297,1.239-0.297c0.421,0,0.801,0.084,1.137,0.252
			C184.596,45.549,184.873,45.788,185.087,46.098z"/>
		<path fill="#0061A1" d="M190.212,46.098l-0.887,0.487c-0.166-0.174-0.329-0.298-0.492-0.365c-0.164-0.068-0.354-0.104-0.575-0.104
			c-0.397,0-0.72,0.12-0.967,0.36c-0.247,0.236-0.368,0.539-0.368,0.914c0,0.362,0.116,0.656,0.355,0.884
			c0.236,0.231,0.549,0.347,0.933,0.347c0.479,0,0.848-0.166,1.114-0.494l0.84,0.576c-0.457,0.598-1.098,0.893-1.93,0.893
			c-0.749,0-1.338-0.221-1.759-0.664c-0.422-0.443-0.636-0.957-0.636-1.555c0-0.409,0.104-0.789,0.308-1.134
			c0.207-0.347,0.494-0.62,0.864-0.817c0.369-0.198,0.781-0.297,1.238-0.297c0.422,0,0.801,0.084,1.139,0.252
			S190,45.788,190.212,46.098z"/>
		<path fill="#0061A1" d="M191.596,43.494c0.182,0,0.341,0.071,0.47,0.202c0.129,0.137,0.196,0.3,0.196,0.491
			c0,0.188-0.067,0.351-0.194,0.483c-0.129,0.133-0.285,0.2-0.466,0.2c-0.183,0-0.341-0.067-0.474-0.202
			c-0.129-0.137-0.195-0.305-0.195-0.496c0-0.188,0.065-0.346,0.194-0.479C191.258,43.563,191.413,43.494,191.596,43.494z
			 M191.064,45.234h1.067v4.259h-1.067V45.234z"/>
		<path fill="#0061A1" d="M195.096,45.129c0.402,0,0.781,0.102,1.134,0.3c0.354,0.202,0.63,0.473,0.829,0.815
			c0.197,0.346,0.298,0.718,0.298,1.115c0,0.401-0.102,0.773-0.298,1.123c-0.201,0.35-0.476,0.622-0.818,0.819
			c-0.344,0.194-0.724,0.294-1.139,0.294c-0.612,0-1.133-0.218-1.564-0.648c-0.432-0.434-0.648-0.959-0.648-1.582
			c0-0.662,0.242-1.217,0.733-1.66C194.049,45.323,194.541,45.129,195.096,45.129z M195.108,46.129
			c-0.331,0-0.608,0.114-0.831,0.348c-0.218,0.229-0.328,0.525-0.328,0.885c0,0.374,0.108,0.672,0.325,0.9
			c0.22,0.23,0.496,0.346,0.831,0.346c0.334,0,0.613-0.116,0.835-0.35c0.224-0.23,0.337-0.527,0.337-0.896
			c0-0.365-0.112-0.662-0.329-0.888C195.728,46.244,195.449,46.129,195.108,46.129z M195.264,42.93h1.258l-1.424,1.529h-0.764
			L195.264,42.93z"/>
		<path fill="#0061A1" d="M198.229,45.234h1.068v0.438c0.244-0.202,0.462-0.344,0.659-0.425c0.195-0.08,0.396-0.118,0.6-0.118
			c0.423,0,0.78,0.146,1.075,0.443c0.247,0.248,0.369,0.62,0.369,1.11v2.81h-1.069V47.63c0-0.509-0.021-0.847-0.065-1.015
			c-0.046-0.164-0.124-0.291-0.236-0.379c-0.111-0.09-0.251-0.131-0.416-0.131c-0.215,0-0.396,0.072-0.552,0.215
			c-0.15,0.145-0.258,0.346-0.316,0.601c-0.032,0.132-0.048,0.421-0.048,0.862v1.709h-1.068V45.234z"/>
		<path fill="#0061A1" d="M78.657,53.303h1.07v5.891h-1.07v-0.451c-0.21,0.197-0.418,0.34-0.63,0.427
			c-0.211,0.087-0.439,0.132-0.685,0.132c-0.553,0-1.03-0.214-1.432-0.641c-0.405-0.425-0.604-0.954-0.604-1.588
			c0-0.653,0.195-1.193,0.584-1.612c0.389-0.419,0.863-0.627,1.422-0.627c0.255,0,0.495,0.047,0.721,0.141
			c0.225,0.097,0.432,0.241,0.624,0.431V53.303z M77.523,55.807c-0.332,0-0.608,0.118-0.828,0.35
			c-0.221,0.237-0.333,0.537-0.333,0.902c0,0.367,0.115,0.673,0.337,0.908c0.226,0.238,0.5,0.355,0.828,0.355
			c0.337,0,0.619-0.115,0.841-0.35c0.222-0.233,0.336-0.539,0.336-0.918c0-0.372-0.114-0.671-0.336-0.901
			C78.146,55.923,77.865,55.807,77.523,55.807z"/>
		<path fill="#0061A1" d="M85.059,57.371h-3.431c0.05,0.302,0.182,0.543,0.396,0.72c0.213,0.181,0.487,0.269,0.819,0.269
			c0.399,0,0.742-0.139,1.026-0.417l0.896,0.423c-0.222,0.315-0.491,0.554-0.802,0.705c-0.313,0.152-0.685,0.231-1.113,0.231
			c-0.664,0-1.209-0.211-1.628-0.633c-0.419-0.421-0.629-0.945-0.629-1.58c0-0.646,0.21-1.187,0.628-1.614
			c0.417-0.429,0.944-0.641,1.573-0.641c0.67,0,1.216,0.212,1.638,0.641c0.419,0.428,0.63,0.993,0.63,1.695L85.059,57.371z
			 M83.993,56.536c-0.072-0.235-0.212-0.428-0.419-0.576c-0.207-0.147-0.449-0.221-0.722-0.221c-0.3,0-0.56,0.081-0.785,0.249
			c-0.144,0.103-0.271,0.285-0.393,0.548H83.993z"/>
		<path fill="#0061A1" d="M88.058,53.303h1.069v5.891h-1.069V53.303z"/>
		<path fill="#0061A1" d="M93.232,54.938h1.07v4.256h-1.07v-0.451c-0.209,0.197-0.419,0.34-0.628,0.427
			c-0.211,0.087-0.44,0.132-0.687,0.132c-0.549,0-1.027-0.214-1.432-0.641c-0.402-0.425-0.603-0.954-0.603-1.588
			c0-0.653,0.195-1.193,0.584-1.612c0.391-0.419,0.863-0.627,1.421-0.627c0.255,0,0.497,0.047,0.72,0.141
			c0.227,0.097,0.433,0.238,0.624,0.429V54.938z M92.1,55.807c-0.333,0-0.608,0.118-0.827,0.35
			c-0.222,0.237-0.332,0.537-0.332,0.902c0,0.367,0.111,0.673,0.338,0.908c0.221,0.238,0.498,0.355,0.826,0.355
			c0.338,0,0.619-0.115,0.841-0.35c0.223-0.233,0.334-0.539,0.334-0.918c0-0.372-0.111-0.671-0.334-0.901
			C92.724,55.923,92.442,55.807,92.1,55.807z"/>
		<path fill="#0061A1" d="M97.811,53.444h1.165c0.637,0,1.088,0.059,1.359,0.171c0.27,0.114,0.485,0.302,0.651,0.567
			c0.167,0.262,0.246,0.57,0.246,0.932c0,0.378-0.089,0.693-0.272,0.95c-0.179,0.253-0.452,0.444-0.817,0.577l1.356,2.553h-1.184
			l-1.289-2.433h-0.132v2.433h-1.082V53.444z M98.893,55.69h0.35c0.354,0,0.597-0.045,0.734-0.135c0.13-0.093,0.2-0.242,0.2-0.455
			c0-0.126-0.036-0.23-0.103-0.325c-0.064-0.092-0.152-0.159-0.265-0.2c-0.113-0.039-0.313-0.06-0.609-0.06h-0.307V55.69z"/>
		<path fill="#0061A1" d="M106.522,57.371h-3.428c0.049,0.302,0.18,0.543,0.393,0.72c0.217,0.181,0.49,0.269,0.822,0.269
			c0.397,0,0.741-0.139,1.026-0.417l0.897,0.423c-0.223,0.315-0.49,0.554-0.807,0.705c-0.311,0.152-0.682,0.231-1.111,0.231
			c-0.666,0-1.208-0.211-1.627-0.633c-0.418-0.421-0.629-0.945-0.629-1.58c0-0.646,0.211-1.187,0.629-1.614
			c0.419-0.429,0.94-0.641,1.573-0.641c0.671,0,1.214,0.212,1.634,0.641c0.421,0.428,0.63,0.993,0.63,1.695L106.522,57.371z
			 M105.457,56.536c-0.069-0.235-0.21-0.428-0.419-0.576c-0.206-0.147-0.448-0.221-0.723-0.221c-0.297,0-0.559,0.081-0.781,0.249
			c-0.143,0.103-0.272,0.285-0.395,0.548H105.457z"/>
		<path fill="#0061A1" d="M108.467,54.938v0.465c0.193-0.19,0.402-0.332,0.628-0.429c0.224-0.094,0.464-0.141,0.721-0.141
			c0.555,0,1.03,0.208,1.416,0.627c0.39,0.419,0.586,0.959,0.586,1.612c0,0.634-0.202,1.163-0.607,1.588
			c-0.399,0.427-0.878,0.641-1.425,0.641c-0.245,0-0.475-0.045-0.688-0.132c-0.211-0.087-0.424-0.229-0.631-0.428v2.003h-1.069
			v-5.807H108.467z M109.584,55.807c-0.334,0-0.613,0.116-0.835,0.347c-0.22,0.23-0.329,0.529-0.329,0.901
			c0,0.379,0.109,0.685,0.329,0.918c0.222,0.234,0.501,0.35,0.835,0.35c0.326,0,0.598-0.117,0.82-0.355
			c0.221-0.235,0.333-0.541,0.333-0.908c0-0.365-0.108-0.665-0.329-0.902C110.192,55.925,109.917,55.807,109.584,55.807z"/>
		<path fill="#0061A1" d="M112.684,54.938h1.072v2.052c0,0.399,0.024,0.675,0.082,0.831c0.056,0.155,0.145,0.275,0.268,0.362
			c0.124,0.087,0.274,0.128,0.454,0.128s0.333-0.04,0.459-0.126c0.126-0.084,0.219-0.21,0.279-0.374
			c0.045-0.123,0.07-0.385,0.07-0.787v-2.086h1.066v1.803c0,0.742-0.058,1.249-0.172,1.523c-0.148,0.333-0.359,0.592-0.64,0.77
			s-0.638,0.268-1.066,0.268c-0.469,0-0.847-0.105-1.139-0.314c-0.288-0.209-0.489-0.499-0.608-0.873
			c-0.083-0.256-0.126-0.725-0.126-1.405V54.938z M114.734,52.635h1.256l-1.427,1.528h-0.762L114.734,52.635z"/>
		<path fill="#0061A1" d="M118.562,53.303v2.102c0.193-0.189,0.402-0.334,0.627-0.431c0.226-0.094,0.466-0.141,0.721-0.141
			c0.559,0,1.028,0.208,1.419,0.627c0.39,0.419,0.582,0.959,0.582,1.612c0,0.634-0.199,1.163-0.602,1.588
			c-0.399,0.427-0.878,0.641-1.433,0.641c-0.244,0-0.474-0.045-0.682-0.132c-0.215-0.087-0.425-0.229-0.633-0.427v0.451h-1.068
			v-5.891H118.562z M119.68,55.807c-0.336,0-0.612,0.116-0.833,0.347c-0.222,0.23-0.332,0.529-0.332,0.901
			c0,0.379,0.11,0.685,0.332,0.918c0.221,0.234,0.497,0.35,0.833,0.35c0.324,0,0.595-0.117,0.816-0.355
			c0.224-0.235,0.335-0.541,0.335-0.908c0-0.365-0.111-0.665-0.328-0.902C120.287,55.925,120.012,55.807,119.68,55.807z"/>
		<path fill="#0061A1" d="M122.662,53.303h1.072v5.891h-1.072V53.303z"/>
		<path fill="#0061A1" d="M125.117,53.198c0.184,0,0.34,0.066,0.47,0.203c0.131,0.137,0.195,0.299,0.195,0.487
			c0,0.19-0.063,0.353-0.193,0.485c-0.128,0.135-0.284,0.199-0.466,0.199c-0.187,0-0.343-0.066-0.472-0.203
			c-0.131-0.136-0.196-0.301-0.196-0.494c0-0.188,0.065-0.344,0.194-0.479C124.779,53.264,124.933,53.198,125.117,53.198z
			 M124.583,54.938h1.068v4.256h-1.068V54.938z"/>
		<path fill="#0061A1" d="M130.782,55.801l-0.886,0.488c-0.168-0.178-0.332-0.298-0.494-0.366c-0.163-0.069-0.353-0.104-0.572-0.104
			c-0.4,0-0.723,0.118-0.97,0.358c-0.245,0.239-0.368,0.543-0.368,0.914c0,0.361,0.118,0.66,0.355,0.889
			c0.235,0.229,0.549,0.342,0.935,0.342c0.476,0,0.848-0.161,1.114-0.494l0.84,0.58c-0.456,0.594-1.1,0.893-1.931,0.893
			c-0.749,0-1.334-0.223-1.758-0.665c-0.426-0.442-0.639-0.962-0.639-1.554c0-0.412,0.104-0.791,0.31-1.137
			c0.208-0.346,0.493-0.619,0.864-0.815c0.368-0.199,0.781-0.297,1.238-0.297c0.421,0,0.801,0.083,1.139,0.253
			C130.292,55.252,130.57,55.49,130.782,55.801z"/>
		<path fill="#0061A1" d="M134.887,54.938h1.069v4.256h-1.069v-0.451c-0.208,0.197-0.418,0.34-0.63,0.427
			c-0.211,0.087-0.438,0.132-0.684,0.132c-0.554,0-1.03-0.214-1.431-0.641c-0.404-0.425-0.605-0.954-0.605-1.588
			c0-0.653,0.196-1.193,0.587-1.612c0.387-0.419,0.859-0.627,1.417-0.627c0.257,0,0.497,0.047,0.722,0.141
			c0.225,0.097,0.433,0.238,0.624,0.429V54.938z M133.754,55.807c-0.333,0-0.61,0.118-0.828,0.35
			c-0.222,0.237-0.33,0.537-0.33,0.902c0,0.367,0.111,0.673,0.335,0.908c0.225,0.238,0.5,0.355,0.827,0.355
			c0.34,0,0.62-0.115,0.843-0.35c0.224-0.233,0.332-0.539,0.332-0.918c0-0.372-0.108-0.671-0.332-0.901
			C134.378,55.923,134.094,55.807,133.754,55.807z"/>
		<path fill="#0061A1" d="M141.142,53.444h1.107l2.213,5.75h-1.137l-0.45-1.187h-2.349l-0.464,1.187h-1.139L141.142,53.444z
			 M141.699,54.97l-0.772,1.979h1.547L141.699,54.97z"/>
		<path fill="#0061A1" d="M144.954,54.938h0.943v0.536c0.095-0.21,0.226-0.37,0.385-0.479c0.159-0.105,0.332-0.161,0.524-0.161
			c0.133,0,0.272,0.036,0.421,0.108l-0.327,0.913c-0.119-0.062-0.224-0.092-0.303-0.092c-0.161,0-0.298,0.101-0.408,0.304
			c-0.111,0.203-0.166,0.604-0.166,1.195l0.002,0.209v1.723h-1.071V54.938z"/>
		<path fill="#0061A1" d="M150.92,54.938h1.057v3.641c0,0.719-0.145,1.248-0.434,1.586c-0.391,0.458-0.976,0.689-1.758,0.689
			c-0.418,0-0.767-0.054-1.054-0.16c-0.284-0.103-0.526-0.256-0.721-0.456c-0.194-0.206-0.338-0.449-0.434-0.737h1.18
			c0.105,0.123,0.242,0.216,0.404,0.28c0.165,0.062,0.361,0.095,0.584,0.095c0.289,0,0.52-0.043,0.695-0.131
			c0.177-0.092,0.296-0.208,0.371-0.352c0.072-0.142,0.108-0.387,0.108-0.732c-0.188,0.189-0.388,0.326-0.592,0.409
			c-0.207,0.083-0.441,0.124-0.703,0.124c-0.573,0-1.058-0.205-1.452-0.619c-0.392-0.408-0.593-0.931-0.593-1.562
			c0-0.675,0.209-1.216,0.628-1.627c0.38-0.37,0.833-0.553,1.356-0.553c0.244,0,0.478,0.046,0.697,0.134
			c0.22,0.091,0.438,0.238,0.658,0.441V54.938z M149.801,55.833c-0.336,0-0.612,0.111-0.834,0.336
			c-0.218,0.225-0.33,0.506-0.33,0.845c0,0.352,0.113,0.641,0.338,0.867c0.226,0.225,0.508,0.339,0.847,0.339
			c0.334,0,0.606-0.112,0.823-0.33c0.213-0.223,0.321-0.51,0.321-0.869c0-0.35-0.109-0.639-0.325-0.858
			C150.426,55.942,150.146,55.833,149.801,55.833z"/>
		<path fill="#0061A1" d="M157.305,57.371h-3.43c0.052,0.302,0.183,0.543,0.396,0.72c0.217,0.181,0.488,0.269,0.823,0.269
			c0.396,0,0.739-0.139,1.024-0.417l0.896,0.423c-0.221,0.315-0.49,0.554-0.805,0.705c-0.311,0.152-0.682,0.231-1.109,0.231
			c-0.666,0-1.21-0.211-1.629-0.633c-0.419-0.421-0.63-0.945-0.63-1.58c0-0.646,0.211-1.187,0.627-1.614
			c0.42-0.429,0.945-0.641,1.576-0.641c0.671,0,1.213,0.212,1.634,0.641c0.424,0.428,0.63,0.993,0.63,1.695L157.305,57.371z
			 M156.24,56.536c-0.068-0.235-0.21-0.428-0.417-0.576c-0.209-0.147-0.448-0.221-0.723-0.221c-0.298,0-0.562,0.081-0.786,0.249
			c-0.14,0.103-0.27,0.285-0.392,0.548H156.24z"/>
		<path fill="#0061A1" d="M158.18,54.938h1.071v0.436c0.242-0.199,0.461-0.345,0.657-0.422c0.197-0.078,0.397-0.118,0.603-0.118
			c0.42,0,0.779,0.147,1.072,0.44c0.247,0.252,0.37,0.618,0.37,1.11v2.81h-1.07v-1.86c0-0.512-0.021-0.847-0.065-1.015
			c-0.046-0.165-0.124-0.294-0.237-0.381c-0.111-0.085-0.25-0.131-0.414-0.131c-0.216,0-0.397,0.074-0.55,0.218
			c-0.151,0.146-0.26,0.345-0.319,0.6c-0.03,0.133-0.046,0.418-0.046,0.862v1.707h-1.071V54.938z"/>
		<path fill="#0061A1" d="M163.119,53.375h1.066v1.563h0.639v0.905h-0.639v3.351h-1.066v-3.351h-0.554v-0.905h0.554V53.375z"/>
		<path fill="#0061A1" d="M165.805,53.198c0.182,0,0.339,0.066,0.47,0.203s0.196,0.299,0.196,0.487c0,0.19-0.065,0.353-0.196,0.485
			c-0.124,0.135-0.28,0.199-0.464,0.199c-0.185,0-0.339-0.066-0.475-0.203c-0.128-0.136-0.193-0.301-0.193-0.494
			c0-0.188,0.065-0.344,0.193-0.479C165.466,53.264,165.622,53.198,165.805,53.198z M165.272,54.938h1.07v4.256h-1.07V54.938z"/>
		<path fill="#0061A1" d="M167.309,54.938h1.072v0.436c0.241-0.199,0.458-0.345,0.656-0.422c0.194-0.078,0.398-0.118,0.604-0.118
			c0.419,0,0.779,0.147,1.07,0.44c0.247,0.252,0.372,0.618,0.372,1.11v2.81h-1.069v-1.86c0-0.512-0.024-0.847-0.069-1.015
			c-0.046-0.165-0.124-0.294-0.235-0.381c-0.112-0.085-0.249-0.131-0.416-0.131c-0.214,0-0.396,0.074-0.549,0.218
			c-0.154,0.146-0.262,0.345-0.316,0.6c-0.034,0.133-0.048,0.418-0.048,0.862v1.707h-1.072V54.938z"/>
		<path fill="#0061A1" d="M175.254,54.938h1.073v4.256h-1.073v-0.451c-0.209,0.197-0.419,0.34-0.626,0.427
			c-0.212,0.087-0.442,0.132-0.689,0.132c-0.55,0-1.027-0.214-1.431-0.641c-0.4-0.425-0.603-0.954-0.603-1.588
			c0-0.653,0.194-1.193,0.583-1.612c0.391-0.419,0.862-0.627,1.42-0.627c0.257,0,0.501,0.047,0.723,0.141
			c0.225,0.097,0.434,0.238,0.623,0.429V54.938z M174.125,55.807c-0.334,0-0.609,0.118-0.83,0.35
			c-0.223,0.237-0.331,0.537-0.331,0.902c0,0.367,0.112,0.673,0.337,0.908c0.223,0.238,0.499,0.355,0.827,0.355
			c0.338,0,0.617-0.115,0.844-0.35c0.22-0.233,0.331-0.539,0.331-0.918c0-0.372-0.111-0.671-0.331-0.901
			C174.745,55.923,174.462,55.807,174.125,55.807z"/>
	</g>
</g>
</svg>
